<?xml version="1.0" encoding="UTF-8" standalone="no"?>
<svg
   version="1.1"
   id="Layer_1"
   x="0px"
   y="0px"
   viewBox="0 0 512 512"
   xml:space="preserve"
   sodipodi:docname="FA-rss-feed.svg"
   inkscape:version="1.2.1 (9c6d41e410, 2022-07-14)"
   xmlns:inkscape="http://www.inkscape.org/namespaces/inkscape"
   xmlns:sodipodi="http://sodipodi.sourceforge.net/DTD/sodipodi-0.dtd"
   xmlns="http://www.w3.org/2000/svg"
   xmlns:svg="http://www.w3.org/2000/svg"><defs
   id="defs13" /><sodipodi:namedview
   id="namedview11"
   pagecolor="#ffffff"
   bordercolor="#000000"
   borderopacity="0.25"
   inkscape:showpageshadow="2"
   inkscape:pageopacity="0.0"
   inkscape:pagecheckerboard="0"
   inkscape:deskcolor="#d1d1d1"
   showgrid="false"
   inkscape:zoom="0.921875"
   inkscape:cx="146.98305"
   inkscape:cy="281.49153"
   inkscape:window-width="1920"
   inkscape:window-height="1142"
   inkscape:window-x="0"
   inkscape:window-y="28"
   inkscape:window-maximized="1"
   inkscape:current-layer="Layer_1" />
<g
   style="fill:#ffffff"
   id="g8"
   transform="matrix(0.82863009,0,0,0.82863009,43.862131,43.870697)">
	<path
   d="m 28.4,256 c 62.9,0 119.6,25.4 160.9,66.6 41.2,41.3 66.6,98 66.6,160.9 0,15.7 12.7,28.4 28.4,28.4 15.7,0 28.4,-12.7 28.4,-28.4 C 312.7,326.4 185.4,199.1 28.3,199.1 12.7,199.1 0,211.8 0,227.6 0,243.3 12.7,256 28.4,256 Z"
   id="path2" />
    <path
   d="m 28.4,56.9 c 117.9,0 224.4,47.7 301.7,125 77.3,77.3 125,183.8 125,301.7 0,15.7 12.7,28.4 28.4,28.4 15.7,0 28.4,-12.7 28.4,-28.4 C 512,216.5 295.5,0 28.4,0 12.7,0 0,12.7 0,28.4 0,44.2 12.7,56.9 28.4,56.9 Z"
   id="path4" />
    <path
   d="m 56.9,426.7 v 28.4 0 0 0 -28.4 -28.4 C 25.5,398.2 0,423.7 0,455.1 0,486.5 25.5,512 56.9,512 c 31.4,0 56.9,-25.5 56.9,-56.9 0,-31.4 -25.5,-56.9 -56.9,-56.9 z"
   id="path6" />
</g>
</svg>
